<svg xmlns="http://www.w3.org/2000/svg" width="20.899" height="22" viewBox="0 0 20.899 22">
  <path id="bus" d="M27.587,30.029l-1.809-.275-.083-.006a1.418,1.418,0,0,0-1.3,1.512v.275a1.418,1.418,0,0,0,1.3,1.512h1.81a1.536,1.536,0,0,0,.082-3.019Zm-.082,1.919H25.7c-.06,0-.2-.156-.2-.412v-.275a.458.458,0,0,1,.178-.409l1.745.265c.117.018.277.042.277.419C27.7,31.792,27.565,31.948,27.505,31.948Zm7.7-2.2-.083.006-1.809.275a1.536,1.536,0,0,0,.082,3.019h1.81a1.418,1.418,0,0,0,1.3-1.512v-.275A1.418,1.418,0,0,0,35.205,29.748Zm.2,1.787c0,.257-.136.412-.2.412H33.4c-.06,0-.2-.156-.2-.412,0-.377.16-.4.277-.419l1.745-.265a.458.458,0,0,1,.178.409ZM39.25,19.3a1.6,1.6,0,0,0-.8.2,4.277,4.277,0,0,0-.686-1.622c-.612-.869-2.051-1.446-4.279-1.716A23.617,23.617,0,0,0,30.45,16a23.644,23.644,0,0,0-3.039.159c-2.228.269-3.667.846-4.279,1.716a4.277,4.277,0,0,0-.686,1.622,1.6,1.6,0,0,0-.8-.2A1.651,1.651,0,0,0,20,20.984v3.224a.591.591,0,0,0,.589.591H22.2V34.973c0,2,.293,2.543.548,2.794A.781.781,0,0,0,23.3,38h.015c.181,0,.624,0,1.014,0,.184,0,.361,0,.488,0,.968,0,1.192-1.314,1.231-2.75h8.813C34.9,36.684,35.12,38,36.088,38c.132,0,.3,0,.488,0,.39,0,.832,0,1.014,0H37.6a.781.781,0,0,0,.548-.231c.255-.25.548-.794.548-2.794V24.8h1.611a.591.591,0,0,0,.589-.591V20.984A1.651,1.651,0,0,0,39.25,19.3Zm-15.24-.76.018-.025c.777-1.123,4.343-1.463,6.409-1.413h.027c2.064-.051,5.632.29,6.409,1.413l.018.025A6.362,6.362,0,0,1,37.6,21.7v.688c0,.016,0,.032,0,.046h0v.354h0v.636a2.367,2.367,0,0,1-1.668,2.153,17.749,17.749,0,0,1-10.963,0A2.367,2.367,0,0,1,23.3,23.43V21.581A6.132,6.132,0,0,1,24.01,18.539ZM21.1,23.7V20.984a.55.55,0,0,1,.55-.585.56.56,0,0,1,.55.489v.631c-.017.486,0,.848,0,.961v.312h0v.356h0v.277s0,0,0,0v.27ZM37.415,36.9c-.226,0-.55,0-.843,0h-.364a5.5,5.5,0,0,1-.257-2.2v-.55h-11v.55a5.5,5.5,0,0,1-.257,2.2h-.364c-.294,0-.617,0-.843,0a6.292,6.292,0,0,1-.185-1.923V25.837a4.039,4.039,0,0,0,1.277.772,18.823,18.823,0,0,0,11.744,0,4.039,4.039,0,0,0,1.277-.772v9.136A6.288,6.288,0,0,1,37.415,36.9ZM39.8,23.7H38.7v-.27s0,0,0,0v-.277h0v-.356h0V22.48c0-.113.017-.475,0-.961v-.628a.561.561,0,0,1,.55-.492.55.55,0,0,1,.55.585Z" transform="translate(-20.001 -15.999)" fill="#fcfcfc"/>
</svg>
