<svg xmlns="http://www.w3.org/2000/svg" width="22.017" height="22" viewBox="0 0 22.017 22">
  <path id="key" d="M53.917,54H49.5l-1.083-1.083V50.563H46.063L44.98,49.48V47.125H42.625l-1.719-1.719a6.872,6.872,0,1,1,4.744-6.531,6.914,6.914,0,0,1-.344,2.131L53.9,49.6V54Zm-3.833-1.375h2.458V50.167L43.725,41.35l.172-.43a5.5,5.5,0,1,0-3.059,3.059l.43-.172,1.942,1.942h3.145V48.9l.292.292h3.145v3.145ZM37.761,40.25a2.406,2.406,0,1,1,2.406-2.406A2.413,2.413,0,0,1,37.761,40.25Zm0-3.437a1.031,1.031,0,1,0,1.031,1.031A1.034,1.034,0,0,0,37.761,36.813Z" transform="translate(-31.9 -32)" fill="#fcfcfc"/>
</svg>
