<?xml version="1.0" encoding="UTF-8"?>
<svg xmlns="http://www.w3.org/2000/svg" viewBox="0 0 192 192"><path d="M176 96c.002 13.242-5.379 25.268-14.059 33.941-8.673 8.68-20.699 14.06-33.941 14.059H56v-8h72c11.059-.002 21.033-4.47 28.284-11.716C163.53 117.034 167.998 107.058 168 96c-.002-11.059-4.47-21.033-11.716-28.284C149.034 60.47 139.06 56.002 128 56H34.657l21.171 21.172-5.656 5.656L19.343 52l30.829-30.828 5.656 5.656L34.657 48H128c13.242-.002 25.268 5.379 33.941 14.059C170.621 70.732 176.002 82.758 176 96z" style="fill: #71767c;"/></svg>
