<?xml version="1.0" encoding="UTF-8"?>
<svg xmlns="http://www.w3.org/2000/svg" viewBox="0 0 192 192"><path d="M144 176c-17.645 0-32-14.355-32-32s14.355-32 32-32 32 14.355 32 32-14.355 32-32 32zm0-56c-13.234 0-24 10.766-24 24s10.766 24 24 24 24-10.766 24-24-10.766-24-24-24zm-24-44H56v8h64v-8zm0-20H56v8h64v-8zM96 96H56v8h40v-8zm44 50.343l-5.171-5.172-5.658 5.658L140 157.657l18.829-18.828-5.658-5.658L140 146.343zM112.022 168H48V24h96v80c2.74 0 5.414.278 8 .805V16H40v160h80.028a40.341 40.341 0 0 1-8.006-8z" style="fill: #007bc0;"/></svg>
