<?xml version="1.0" encoding="UTF-8"?>
<svg xmlns="http://www.w3.org/2000/svg" viewBox="0 0 192 192"><path d="M163.1 64.3C154.4 35.7 127.2 16 96 16c-31.2 0-58.4 19.7-67.1 48.3C21.2 65.5 16 71.7 16 80v36c0 9.4 6.6 16 16 16s16-6.6 16-16V80c0-7.6-4.3-13.3-10.8-15.3C45.4 40.5 69 24 96 24c27 0 50.6 16.5 58.8 40.7-6.6 2-10.8 7.7-10.8 15.3v36c0 8 4.8 14 12 15.6V152c0 5.3-2.7 8-8 8h-.7c-.6-1.7-1.5-3.3-2.9-4.6-2.2-2.2-5.2-3.4-8.4-3.4h-20c-3.4 0-6.4 1.1-8.6 3.3-2.2 2.2-3.4 5.3-3.4 8.7 0 7 5 12 12 12h20c5.5 0 9.8-3.2 11.4-8h.6c9.7 0 16-6.3 16-16v-20.4c7.2-1.6 12-7.5 12-15.6V80c0-8.3-5.2-14.5-12.9-15.7zM40 80v36c0 5.9-4.1 8-8 8s-8-2.1-8-8V80c0-5.9 4.1-8 8-8s8 2.1 8 8zm96 88h-20c-3.7 0-4-3.1-4-4 0-1.3.4-2.4 1.1-3 .6-.6 1.6-1 2.9-1h20.1c1.1 0 2.1.4 2.8 1 .7.7 1.2 1.8 1.2 3-.1.9-.4 4-4.1 4zm32-52c0 5.9-4.1 8-8 8s-8-2.1-8-8V80c0-5.9 4.1-8 8-8s8 2.1 8 8v36z" style="fill: #000000;"/></svg>
