<?xml version="1.0" encoding="UTF-8"?>
<svg xmlns="http://www.w3.org/2000/svg" viewBox="0 0 192 192"><path d="M148 140h12v8h-12v12h-8v-12h-12v-8h12v-12h8v12zm28 4c0 17.645-14.355 32-32 32s-32-14.355-32-32 14.355-32 32-32 32 14.355 32 32zm-8 0c0-13.234-10.766-24-24-24s-24 10.766-24 24 10.766 24 24 24 24-10.766 24-24zm-47.972 32H40V16h81.815L152 50.497v54.308a40.027 40.027 0 0 0-8-.805V56h-28V24H48v144h64.022a40.341 40.341 0 0 0 8.006 8zM124 48h15.185L124 30.646V48z" style="fill: #007bc0;"/></svg>
