<?xml version="1.0" encoding="UTF-8"?>
<svg xmlns="http://www.w3.org/2000/svg" viewBox="0 0 192 192"><path d="M96 16c-37.495 0-68 30.505-68 68 0 28.24 18.216 51.907 46.535 60.657L96 174.913l21.465-30.255C145.785 135.91 164 112.243 164 84c0-37.495-30.505-68-68-68zm17.89 121.377l-1.343.388L96 161.087l-16.546-23.323-1.344-.388C52.53 129.986 36 109.034 36 84c0-33.084 26.916-60 60-60s60 26.916 60 60c0 25.036-16.53 45.988-42.11 53.377zm-12.473-83.96c0 2.955-2.462 5.417-5.417 5.417-2.955 0-5.417-2.462-5.417-5.417C90.583 50.462 93.045 48 96 48c2.955 0 5.417 2.462 5.417 5.417zM92 68h8v52h-8V68z" style="fill: #ffffff;"/></svg>
