<?xml version="1.0" encoding="UTF-8"?>
<svg xmlns="http://www.w3.org/2000/svg" viewBox="0 0 192 192"><path d="M159.897 44H32.103C23.223 44 16 51.224 16 60.103v71.794C16 140.777 23.224 148 32.103 148h127.794c8.88 0 16.103-7.224 16.103-16.103V60.103C176 51.223 168.776 44 159.897 44zM32.103 52h127.794c4.468 0 8.103 3.635 8.103 8.103V68H24v-7.897C24 55.635 27.635 52 32.103 52zm127.794 88H32.103c-4.468 0-8.103-3.635-8.103-8.103V92h144v39.897c0 4.468-3.635 8.103-8.103 8.103zM32 116h36v8H32v-8z" style="fill: #ffffff;"/></svg>
