<?xml version="1.0" encoding="UTF-8"?>
<svg xmlns="http://www.w3.org/2000/svg" viewBox="0 0 192 192"><path d="M55.6 32c-1.9-9.1-9.9-16-19.6-16-10.7 0-19.5 8.5-20 19.1v105.5c.3 10.1 8.1 18.3 18 19.3v.1h142V32H55.6zM36 24c6.6 0 12 5.4 12 12l.1 88.1c-3.4-2.6-7.6-4.1-12.1-4.1s-8.7 1.5-12 4V36c0-6.6 5.4-12 12-12zm132 128H36c-6.6 0-12-5.4-12-12s5.4-12 12-12 12 5.4 12.1 12.1l8-.1L56 40h112v112zm-12-12H68v-8h88v8zm-81-21.4l-6-5.3L103.5 74l16.2 16 24-30H132v-8h24v24h-8v-8.6L120.3 102l-16.4-16.2L75 118.6z" style="fill: #ffffff;"/></svg>
