<svg xmlns="http://www.w3.org/2000/svg" width="21" height="30" viewBox="0 0 21 30">
  <defs>
    <style>
      .cls-1 {
        fill: #fff;
      }
    </style>
  </defs>
  <path id="clipboard-list" class="cls-1" d="M56.72,23.72,57.78,24.78l-3.53,3.53-2.03-2.03L53.28,25.22l.97.97Zm-2.47,7.72-.97-.97L52.22,31.53l2.03,2.03,3.53-3.53L56.72,28.97Zm0,5.25-.97-.97L52.22,36.78l2.03,2.03,3.53-3.53L56.72,34.22ZM61,17.5V46H40V17.5h5.25V16h10.5v1.5ZM46.75,19h7.5V17.5h-7.5ZM59.5,19H55.75v1.5H45.25V19H41.5V44.5h18ZM43,27.25h7.5v-1.5H43Zm0,5.25h7.5V31H43Zm0,5.25h7.5v-1.5H43Z" transform="translate(-40 -16)"/>
</svg>
