<?xml version="1.0" encoding="UTF-8"?>
<svg xmlns="http://www.w3.org/2000/svg" viewBox="0 0 192 192"><path d="M120 84H56v-8h64v8zm0-28H56v8h64v-8zm-64 48h32v-8H56v8zm88 64H48V24h96v35.234a26.263 26.263 0 0 1 8-3.455V16H40v160h112v-50.415l-8 8V168zm26.845-73.955l-2.828 2.829-.017-.017-52.355 52.355-33.143 8.286 8.286-33.143 55.167-55.2c6.862-6.863 18.028-6.863 24.89 0s6.863 18.028 0 24.89zM113.6 139.943l42.35-42.35-13.513-13.574-42.38 42.38 13.543 13.544zm-20.102 6.56l12.278-3.07-9.209-9.209-3.07 12.278zm71.69-71.691c-3.583-3.583-9.315-3.737-13.083-.46l-4.01 4.01 13.512 13.575 4.042-4.042c3.275-3.768 3.122-9.5-.461-13.083z" style="fill: #ffffff;"/></svg>
