<svg xmlns="http://www.w3.org/2000/svg" width="24.647" height="24.365" viewBox="0 0 24.647 24.365">
  <defs>
    <style>
      .cls-1 {
        fill: #fff;
      }
    </style>
  </defs>
  <g id="Group_166800" data-name="Group 166800" transform="translate(615.75 -7847)">
    <path id="Path_19190" data-name="Path 19190" class="cls-1" d="M60.177,22.9H58.746a8.944,8.944,0,0,0-13.149-7.9,5.934,5.934,0,0,0-1.184-.968,10.343,10.343,0,0,1,2.476-1.095,6.833,6.833,0,0,1-2.806-2.466,6.8,6.8,0,1,1,11.432,0,6.833,6.833,0,0,1-2.806,2.466,10.334,10.334,0,0,1,2.985,1.426,10.425,10.425,0,0,1,3.922,5.167,10.323,10.323,0,0,1,.561,3.367ZM49.8,1.431A5.368,5.368,0,1,0,55.167,6.8,5.374,5.374,0,0,0,49.8,1.431Z" transform="translate(-651.28 7847)"/>
    <path id="search" class="cls-1" d="M28.365,26.636l-4.542-4.542a4.157,4.157,0,1,0-1.73,1.73l4.542,4.542a1.391,1.391,0,0,0,.978.415,1.164,1.164,0,0,0,.831-.335A1.285,1.285,0,0,0,28.365,26.636ZM16.639,20.153a3.514,3.514,0,1,1,3.514,3.514A3.518,3.518,0,0,1,16.639,20.153Zm11.355,7.84a.527.527,0,0,1-.427.148.78.78,0,0,1-.479-.228l-4.442-4.441a4.188,4.188,0,0,0,.826-.826l4.441,4.442a.781.781,0,0,1,.228.479.527.527,0,0,1-.148.427Z" transform="translate(-631.616 7842.452)"/>
    <path id="search_-_Outline" data-name="search - Outline" class="cls-1" d="M27,28.3a1.534,1.534,0,0,1-1.073-.455l-4.473-4.473a4.29,4.29,0,1,1,1.919-1.919l4.473,4.473a1.419,1.419,0,0,1,.08,2A1.3,1.3,0,0,1,27,28.3Zm-5.5-5.257,4.612,4.612a1.264,1.264,0,0,0,.883.376,1.031,1.031,0,0,0,.737-.3,1.151,1.151,0,0,0-.08-1.62L23.042,21.5l.047-.088a4.023,4.023,0,1,0-1.674,1.674ZM27.243,27.7V27.62a.685.685,0,0,1-.24.042l-.064,0a.916.916,0,0,1-.563-.267l-4.551-4.551.123-.093a4.053,4.053,0,0,0,.8-.8l.093-.123,4.551,4.551a.917.917,0,0,1,.267.563.658.658,0,0,1-.187.533Zm-5.011-4.833L26.567,27.2a.644.644,0,0,0,.395.189l.042,0a.38.38,0,0,0,.279-.111l.005-.005a.389.389,0,0,0,.1-.316.644.644,0,0,0-.189-.395l-4.334-4.334A4.32,4.32,0,0,1,22.232,22.869Zm-2.7.317a3.648,3.648,0,1,1,3.648-3.648A3.652,3.652,0,0,1,19.537,23.185Zm0-7.028a3.38,3.38,0,1,0,3.38,3.38A3.384,3.384,0,0,0,19.537,16.157Z" transform="translate(-631 7843.067)"/>
  </g>
</svg>
