<?xml version="1.0" encoding="UTF-8"?>
<svg xmlns="http://www.w3.org/2000/svg" viewBox="0 0 192 192"><path d="M68.527 29.426l-3.055-7.394a79.556 79.556 0 0 1 22.112-5.595l.832 7.958a71.57 71.57 0 0 0-19.89 5.03zm-6.63 3.146l-3.795-7.043a80.182 80.182 0 0 0-18.944 14.178l5.684 5.63a72.163 72.163 0 0 1 17.055-12.765zM40.173 50.528l-6.2-5.056a79.899 79.899 0 0 0-11.94 20l7.393 3.055a71.904 71.904 0 0 1 10.747-18zM16 96h8c0-7.101 1.03-14.114 3.062-20.844l-7.658-2.312A80.043 80.043 0 0 0 16 96zm80-80v8c39.701 0 72 32.299 72 72s-32.299 72-72 72c-21.754 0-40.99-9.902-54.677-28H72v-8H28v44h8v-29.797C51.15 165.478 72.206 176 96 176c44.112 0 80-35.888 80-80s-35.888-80-80-80z" style="fill: #007bc0;"/></svg>
