<svg xmlns="http://www.w3.org/2000/svg" width="25.5" height="30" viewBox="0 0 25.5 30">
  <defs>
    <style>
      .cls-1 {
        fill: #fff;
      }
    </style>
  </defs>
  <path id="document-check" class="cls-1" d="M55,31.75H43v-1.5H55ZM43,35.5h7.5V34H43Zm15.75,4.939-.97-.97L56.72,40.53l2.03,2.03,3.53-3.53L61.22,37.97ZM65.5,40a6,6,0,1,1-6-6A6.007,6.007,0,0,1,65.5,40ZM64,40a4.5,4.5,0,1,0-4.5,4.5A4.505,4.505,0,0,0,64,40ZM55,26.5H43V28H55ZM55,46v0H40V16H55.34L61,22.468V32.651a7.5,7.5,0,0,0-1.5-.151v-9H54.25v-6H41.5v27h12A7.564,7.564,0,0,0,55,46Zm.75-24H58.6L55.75,18.746Z" transform="translate(-40 -16)"/>
</svg>
