<svg xmlns="http://www.w3.org/2000/svg" xmlns:xlink="http://www.w3.org/1999/xlink" width="344" height="62" viewBox="0 0 344 62">
  <defs>
    <style>
      .cls-1 {
        fill: #fff;
        stroke: #707070;
      }

      .cls-2 {
        clip-path: url(#clip-path);
      }

      .cls-3 {
        fill: url(#linear-gradient);
      }

      .cls-4 {
        fill: url(#linear-gradient-2);
      }

      .cls-5 {
        fill: #d51317;
      }

      .cls-6 {
        fill: url(#linear-gradient-3);
      }

      .cls-7 {
        fill: url(#linear-gradient-4);
      }

      .cls-8 {
        fill: #169a39;
      }

      .cls-9 {
        fill: url(#linear-gradient-5);
      }
    </style>
    <clipPath id="clip-path">
      <rect id="Rectangle_1768" data-name="Rectangle 1768" class="cls-1" width="344" height="62" transform="translate(-2418 7897)"/>
    </clipPath>
    <linearGradient id="linear-gradient" x1="1.027" y1="0.001" x2="0.562" y2="0.662" gradientUnits="objectBoundingBox">
      <stop offset="0" stop-color="#312a6f"/>
      <stop offset="0.243" stop-color="#312a6f"/>
      <stop offset="0.418" stop-color="#2f2d72"/>
      <stop offset="0.624" stop-color="#2b337a"/>
      <stop offset="0.846" stop-color="#1e3e87"/>
      <stop offset="1" stop-color="#024995"/>
    </linearGradient>
    <linearGradient id="linear-gradient-2" x1="0.5" x2="0.5" y2="1" gradientUnits="objectBoundingBox">
      <stop offset="0" stop-color="#00b5dd"/>
      <stop offset="0.224" stop-color="#00b0d8"/>
      <stop offset="0.548" stop-color="#00a3c9"/>
      <stop offset="0.931" stop-color="#008fb3"/>
      <stop offset="1" stop-color="#008bae"/>
    </linearGradient>
    <linearGradient id="linear-gradient-3" x1="1" y1="0.5" x2="0" y2="0.5" gradientUnits="objectBoundingBox">
      <stop offset="0" stop-color="#88357f"/>
      <stop offset="0.335" stop-color="#88357f"/>
      <stop offset="0.6" stop-color="#8b2e64"/>
      <stop offset="0.871" stop-color="#8e284a"/>
      <stop offset="1" stop-color="#8f2540"/>
    </linearGradient>
    <linearGradient id="linear-gradient-4" y1="0.5" x2="1" y2="0.5" gradientUnits="objectBoundingBox">
      <stop offset="0" stop-color="#6e368c"/>
      <stop offset="1" stop-color="#3a4190"/>
    </linearGradient>
    <linearGradient id="linear-gradient-5" x1="0.5" x2="0.5" y2="1" gradientUnits="objectBoundingBox">
      <stop offset="0" stop-color="#699f60"/>
      <stop offset="0.096" stop-color="#5a9955"/>
      <stop offset="0.265" stop-color="#449148"/>
      <stop offset="0.452" stop-color="#318c40"/>
      <stop offset="0.672" stop-color="#23893b"/>
      <stop offset="1" stop-color="#1d893a"/>
    </linearGradient>
  </defs>
  <g id="Mask_Group_184" data-name="Mask Group 184" class="cls-2" transform="translate(2418 -7897)">
    <g id="Group_166969" data-name="Group 166969" transform="translate(-2730.658 7551.743)">
      <path id="Path_19193" data-name="Path 19193" class="cls-3" d="M574.909-.226,203.226,2.741-.107,279.594l182.166,273.77,389.834-3.112Z" transform="matrix(0.017, 1, -1, 0.017, 637.176, -1.476)"/>
      <path id="Path_19194" data-name="Path 19194" class="cls-4" d="M119.305,660.97c-1.018-71.666,5.289-159.491,11.386-244.436,10.436-145.583,21.127-273.433,3.363-406.288L1.372.005C.232,27.734-1.48,46.548,3.6,102.174c7.068,77.485,23.338,173.658,39.077,266.673C65.849,505.791,88.213,637.692,91.8,753.992l36.026,2.781C124.336,741.226,120.033,712.505,119.305,660.97Z" transform="translate(906.069 121.064) rotate(100)"/>
      <path id="Path_19195" data-name="Path 19195" class="cls-5" d="M81.147-.42-1,188.539,45.273,367.854,238.994,170.523Z" transform="translate(111.007 66.734) rotate(14)"/>
      <path id="Path_19196" data-name="Path 19196" class="cls-6" d="M-.171,19.606,124.8-1.1l-72.676,228.8Z" transform="matrix(-0.438, -0.899, 0.899, -0.438, 535.424, 332.934)"/>
      <path id="Path_19197" data-name="Path 19197" class="cls-7" d="M126.221-.9l-.1.01L-1.3,179.782,68.824,339.757,236.829,154.841Z" transform="translate(521.582 245.508) rotate(20)"/>
      <g id="Group_166968" data-name="Group 166968" transform="translate(703.786 498.573) rotate(106)">
        <path id="Path_19198" data-name="Path 19198" class="cls-8" d="M32.923.2c-2.155,10.679-4.335,21.2-6.474,31.549C13.054,96.465.4,157.588,1.255,211.991c.669,42.279,9.4,74.287,28.141,103.583L101.337,324C101.2,213.293,66.864,101.144,32.923.2Z" transform="translate(1.983 339.37)"/>
        <path id="Path_19199" data-name="Path 19199" class="cls-9" d="M7.437.044C40.911,122.38,22.429,238.085,1.983,339.37,35.926,440.319,70.257,552.467,70.4,663.176l86.23,10.1L100.189,10.911Z" transform="translate(32.922 0.196)"/>
      </g>
    </g>
  </g>
</svg>
