<svg xmlns="http://www.w3.org/2000/svg" width="21" height="30" viewBox="0 0 21 30">
  <defs>
    <style>
      .cls-1 {
        fill: #fff;
      }
    </style>
  </defs>
  <path id="file-dollar" class="cls-1" d="M61,46H40V16H61ZM41.5,44.5h18v-27h-18ZM58,23.5H49.75V25H58Zm0-3.75H49.75v1.5H58Zm0,9H43v1.5H58Zm0,3.75H43V34H58Zm0,3.75H43v1.5H58ZM58,40H43v1.5H58ZM45.639,21.954a3.737,3.737,0,0,1,1.144.374,1.359,1.359,0,0,1,.7,1.3A1.541,1.541,0,0,1,46.767,25a2.487,2.487,0,0,1-1.128.335v.981h-.584V25.34A2.273,2.273,0,0,1,43,24l.988-.452a1.283,1.283,0,0,0,1.066.856V22.942a3.1,3.1,0,0,1-1.129-.4,1.42,1.42,0,0,1-.677-1.277,1.525,1.525,0,0,1,.848-1.416,2.366,2.366,0,0,1,.957-.234v-.685h.584v.685a2.325,2.325,0,0,1,1.813.9l-.957.514a1.13,1.13,0,0,0-.856-.514Zm-.584-1.433c-.506.07-.731.273-.731.654,0,.35.187.529.731.661V20.521Zm.584,3.892c.5-.078.739-.3.739-.677,0-.358-.187-.529-.739-.677Z" transform="translate(-40 -16)"/>
</svg>
