<?xml version="1.0" encoding="UTF-8"?>
<svg xmlns="http://www.w3.org/2000/svg" viewBox="0 0 192 192"><path d="M164 56h-28V28h8v14.343l21.173-21.172 5.656 5.657L149.658 48H164v8zm0 88v-8h-28v28h8v-14.343l21.173 21.172 5.656-5.657L149.658 144H164zm-136 0h14.342l-21.171 21.172 5.657 5.657 21.171-21.171V164h8v-28H28v8zM48 42.342L26.827 21.171l-5.657 5.657L42.342 48H28v8h28V28h-8v14.342zM152 112h-8c0-8.823-7.178-16-16-16-2.96 0-5.726.822-8.107 2.23.068-.735.107-1.478.107-2.23 0-7.042-3.049-13.385-7.895-17.779C112.993 70.234 119.779 64 128 64c8.822 0 16 7.177 16 16 0 4.259-1.684 8.124-4.407 10.994C146.983 95.09 152 102.968 152 112zm-16-32c0-4.412-3.589-8-8-8s-8 3.588-8 8 3.589 8 8 8 8-3.59 8-8zM72.107 98.23A15.88 15.88 0 0 0 64 96c-8.822 0-16 7.177-16 16h-8c0-9.032 5.016-16.91 12.407-21.006C49.684 88.124 48 84.258 48 80c0-8.823 7.178-16 16-16 8.221 0 15.007 6.233 15.896 14.22C75.049 82.616 72 88.959 72 96c0 .752.04 1.495.107 2.23zM72.001 80c0-4.412-3.589-8-8-8-4.412 0-8 3.588-8 8s3.588 8 8 8c4.411 0 8-3.59 8-8zM120 128h-8c0-8.823-7.178-16-16-16s-16 7.177-16 16h-8c0-9.032 5.016-16.91 12.407-21.006C81.683 104.124 80 100.26 80 96c0-8.823 7.178-16 16-16s16 7.177 16 16c0 4.259-1.684 8.124-4.407 10.994C114.983 111.09 120 118.968 120 128zm-24-24c4.411 0 8-3.59 8-8s-3.589-8-8-8-8 3.588-8 8 3.589 8 8 8z" style="fill: #ffffff;"/></svg>
