<?xml version="1.0" encoding="UTF-8"?>
<svg xmlns="http://www.w3.org/2000/svg" viewBox="0 0 192 192"><path d="M156.103 77.538A15.99 15.99 0 0 0 143.998 72H116V48c0-8.822-7.178-16-16-16H88.813l-9.274 40.482a7.963 7.963 0 0 1-4.346 5.218L63.009 82.51C60.763 76.39 54.892 72 48 72c-8.822 0-16 7.178-16 16v56c0 8.822 7.178 16 16 16 6.87 0 12.725-4.36 14.988-10.452 5.337 2.18 13.608 5.534 15.747 6.247.411.137.884.316 1.425.52C83.575 157.603 89.932 160 100 160h35.51c7.884 0 14.69-5.882 15.828-13.663l8.491-56.02a15.99 15.99 0 0 0-3.726-12.78zM56 144c0 4.411-3.589 8-8 8s-8-3.589-8-8V88c0-4.411 3.589-8 8-8s8 3.589 8 8v56zm95.917-54.862l-8.492 56.02c-.57 3.901-3.973 6.842-7.915 6.842H100c-8.61 0-13.873-1.984-17.018-3.17a50.75 50.75 0 0 0-1.717-.625c-2.015-.671-11.6-4.566-17.265-6.887V90.721L78.234 85.1l.186-.079a15.927 15.927 0 0 0 8.88-10.6L95.188 40H100c4.411 0 8 3.589 8 8v32h35.998a7.995 7.995 0 0 1 6.052 2.769 7.985 7.985 0 0 1 1.867 6.37z" style="fill: #007bc0;"/></svg>
