<svg xmlns="http://www.w3.org/2000/svg" width="31.95" height="22" viewBox="0 0 31.95 22">
  <path id="Path_19281" data-name="Path 19281" d="M18.512,15.281A6.719,6.719,0,1,1,25.231,22,6.726,6.726,0,0,1,18.512,15.281Zm1.175,0a5.544,5.544,0,1,0,5.544-5.544A5.55,5.55,0,0,0,19.687,15.281ZM18.366,18.35h0ZM18.367,18.35ZM0,18.35V0H28.231V8.486a7.285,7.285,0,0,0-1.412-.551V1.412H1.412V16.938h.706a5.594,5.594,0,0,1,1.114-3.364,5.684,5.684,0,0,1,1.248-1.226,5.626,5.626,0,0,1,1.578-.793,3.559,3.559,0,0,1-1.319-1.272,3.529,3.529,0,1,1,6.049,0,3.559,3.559,0,0,1-1.319,1.272,5.625,5.625,0,0,1,1.578.793,5.684,5.684,0,0,1,1.248,1.226,5.594,5.594,0,0,1,1.114,3.364h4.406a7.289,7.289,0,0,0,.551,1.411H0Zm3.529-1.412H12a4.235,4.235,0,1,0-8.469,0ZM5.646,8.469A2.117,2.117,0,1,0,7.763,6.352,2.12,2.12,0,0,0,5.646,8.469Zm16.078,7.04.831-.831,1.708,1.708,3.644-3.644.831.831-4.475,4.475Zm-4-2.1H14.115V12H18.2a7.29,7.29,0,0,0-.468,1.411h0ZM14.115,9.881V8.469h7.443A7.329,7.329,0,0,0,19.64,9.881Zm0-3.529V4.94H25.407V6.352H14.115Z" fill="#fcfcfc"/>
</svg>
