<svg id="Group_169138" data-name="Group 169138" xmlns="http://www.w3.org/2000/svg" width="16.501" height="22.001" viewBox="0 0 16.501 22.001">
  <path id="document-copy-CDQ" d="M49.751,38H36V18.2h1.65v1.1H37.1V36.9H48.651v-.55h1.1ZM52.5,16H38.75V35.251H52.5ZM39.85,17.1H51.4v17.05H39.85ZM50.3,23.7H40.95v1.1H50.3Zm0,2.75H40.95v1.1H50.3ZM47,29.2H40.95v1.1H47Z" transform="translate(-36 -16)" fill="#fff"/>
  <path id="Path_19221" data-name="Path 19221" d="M-22.744-24.637h1.415a1.232,1.232,0,0,1,.913.317,1.016,1.016,0,0,1,.274.745.936.936,0,0,1-.345.782,1.252,1.252,0,0,1-.8.237h-.59v1.073h-.868Zm1.34,1.45q.429,0,.429-.4t-.424-.4h-.476v.8Zm3.179-1.5a1.449,1.449,0,0,1,1.168.513,1.663,1.663,0,0,1,.377,1.116,1.6,1.6,0,0,1-.489,1.234,1.51,1.51,0,0,1-1.073.394,1.482,1.482,0,0,1-1.185-.508,1.646,1.646,0,0,1-.381-1.116,1.84,1.84,0,0,1,.146-.743,1.458,1.458,0,0,1,.351-.5A1.557,1.557,0,0,1-18.225-24.687Zm-.03.7a.555.555,0,0,0-.506.274,1.248,1.248,0,0,0-.146.657,1.138,1.138,0,0,0,.192.724.571.571,0,0,0,.47.207.57.57,0,0,0,.517-.269,1.226,1.226,0,0,0,.149-.657Q-17.581-23.989-18.255-23.989Z" transform="translate(29.618 27.322)" fill="#fff"/>
</svg>
