<?xml version="1.0" encoding="UTF-8"?>
<!-- Generator: Adobe Illustrator 24.0.1, SVG Export Plug-In . SVG Version: 6.00 Build 0)  -->
<svg xmlns="http://www.w3.org/2000/svg" xmlns:xlink="http://www.w3.org/1999/xlink" version="1.1" id="Icon_x5F_contour" x="0px" y="0px" viewBox="0 0 192 192" style="enable-background:new 0 0 192 192;" xml:space="preserve">
<path d="M176,96c0.00195,13.24225-5.37878,25.26758-14.05878,33.94122C153.26758,138.62122,141.24225,144.00195,128,144H56v-8h72  c11.05853-0.00201,21.0332-4.47089,28.28436-11.71564C163.52911,117.03314,167.99799,107.05847,168,96  c-0.00201-11.05859-4.47089-21.0332-11.71564-28.28436C149.0332,60.47083,139.05853,56.00195,128,56H34.65686l21.17157,21.17157  l-5.65686,5.65686L19.34314,52l30.82843-30.82843l5.65686,5.65686L34.65686,48H128  c13.24231-0.00201,25.26758,5.37872,33.94122,14.05878C170.62122,70.73242,176.00201,82.75769,176,96z" style="fill: #71767c;"/>
<g>
</g>
<g>
</g>
<g>
</g>
<g>
</g>
<g>
</g>
<g>
</g>
<g>
</g>
<g>
</g>
<g>
</g>
<g>
</g>
<g>
</g>
<g>
</g>
<g>
</g>
<g>
</g>
<g>
</g>
</svg>
