<?xml version="1.0" encoding="UTF-8"?>
<!-- Generator: Adobe Illustrator 24.0.1, SVG Export Plug-In . SVG Version: 6.00 Build 0)  -->
<svg xmlns="http://www.w3.org/2000/svg" xmlns:xlink="http://www.w3.org/1999/xlink" version="1.1" id="Icon_x5F_contour" x="0px" y="0px" viewBox="0 0 192 192" style="enable-background:new 0 0 192 192;" xml:space="preserve">
<path d="M176,96c0,44.1123-35.8877,80-80,80s-80-35.8877-80-80c0-24.13812,9.87714-45.18195,27.97717-59.98712L15.99805,36  l0.00391-8l43.98193,0.02051L60,71.99854l-8,0.00293l-0.01178-32.07892C33.91736,53.27246,24,73.07739,24,96  c0,39.70117,32.29883,72,72,72s72-32.29883,72-72s-32.29883-72-72-72v-8C140.1123,16,176,51.8877,176,96z M136,92h-36V44h-8v56h44  V92z" style="fill: #71767c;"/>
<g>
</g>
<g>
</g>
<g>
</g>
<g>
</g>
<g>
</g>
<g>
</g>
<g>
</g>
<g>
</g>
<g>
</g>
<g>
</g>
<g>
</g>
<g>
</g>
<g>
</g>
<g>
</g>
<g>
</g>
</svg>
