<?xml version="1.0" encoding="UTF-8"?>
<svg xmlns="http://www.w3.org/2000/svg" viewBox="0 0 192 192"><path d="M120 64H56v-8h64v8zm0 12H56v8h64v-8zM96 96H56v8h40v-8zm-8 52H56v8h32v-8zm48 0h-32v8h32v-8zm8-23.03V168H48V24h96v35.05a23.17 23.17 0 0 1 8-4.955V16H40v160h112v-59.03l-8 8zm26.83-38.14l-.001-.001-44.668 44.667-32.486 10.829 10.829-32.486 44.667-44.668c5.971-5.971 15.687-5.971 21.659 0 5.97 5.971 5.97 15.687 0 21.659zm-64.505 42.845l10.27-3.423-6.847-6.847-3.423 10.27zm58.847-48.503c2.853-2.852 2.853-7.492 0-10.344-2.851-2.853-7.493-2.853-10.344 0L113.658 112 124 122.343l41.171-41.172.001.001z" style="fill: #007bc0;"/></svg>
