<?xml version="1.0" encoding="UTF-8"?>
<svg xmlns="http://www.w3.org/2000/svg" viewBox="0 0 192 192"><path d="M107.105 48.138C111.295 44.838 114 39.734 114 34c0-9.925-8.075-18-18-18s-18 8.075-18 18c0 5.734 2.705 10.839 6.895 14.138C74.965 52.138 68 61.326 68 72h8c0-9.925 8.972-18 20-18s20 8.075 20 18h8c0-10.674-6.965-19.863-16.895-23.862zM96 24c5.514 0 10 4.486 10 10s-4.486 10-10 10-10-4.486-10-10 4.486-10 10-10zM55.105 152.138C59.295 148.838 62 143.734 62 138c0-9.925-8.075-18-18-18s-18 8.075-18 18c0 5.734 2.705 10.839 6.895 14.138C22.965 156.138 16 165.326 16 176h8c0-9.925 8.972-18 20-18s20 8.075 20 18h8c0-10.674-6.965-19.863-16.895-23.862zM44 128c5.514 0 10 4.486 10 10s-4.486 10-10 10-10-4.486-10-10 4.486-10 10-10zm115.105 24.138c4.19-3.3 6.895-8.404 6.895-14.138 0-9.925-8.075-18-18-18s-18 8.075-18 18c0 5.734 2.705 10.839 6.895 14.138-9.93 4-16.895 13.188-16.895 23.862h8c0-9.925 8.972-18 20-18s20 8.075 20 18h8c0-10.674-6.965-19.863-16.895-23.862zM148 128c5.514 0 10 4.486 10 10s-4.486 10-10 10-10-4.486-10-10 4.486-10 10-10zm-25.764 13.454a25.794 25.794 0 0 0 2.326 7.795C115.957 153.559 106.26 156 96 156s-19.957-2.441-28.562-6.751a25.794 25.794 0 0 0 2.326-7.795C77.596 145.626 86.524 148 96 148s18.404-2.374 26.236-6.546zM43.71 112.007c-2.804.031-5.5.51-8.026 1.365A63.693 63.693 0 0 1 32 92c0-26.039 15.64-48.48 38.012-58.464-.003.155-.012.308-.012.464 0 2.72.422 5.343 1.2 7.81C52.731 50.971 40 70.022 40 92c0 7.048 1.322 13.79 3.709 20.007zM122 34c0-.156-.009-.31-.012-.464C144.36 43.52 160 65.96 160 92a63.693 63.693 0 0 1-3.683 21.372 25.871 25.871 0 0 0-8.026-1.365A55.697 55.697 0 0 0 152 92c0-21.977-12.731-41.028-31.2-50.19.778-2.467 1.2-5.09 1.2-7.81z" style="fill: #007bc0;"/></svg>
