<?xml version="1.0" encoding="UTF-8"?>
<svg xmlns="http://www.w3.org/2000/svg" viewBox="0 0 192 192"><path d="M121.815 16H40v160h112V50.497L121.815 16zM124 30.646L139.185 48H124V30.646zM48 168V24h68v32h28v112H48zm60-64H56v-8h52v8zm0 16H56v-8h52v8zm-20 16H56v-8h32v8zm-3.977-64.602a12.983 12.983 0 0 0 3.1-8.422c0-7.196-5.854-13.05-13.05-13.05s-13.049 5.854-13.049 13.05c0 3.18 1.146 6.094 3.043 8.36C59.211 74.922 56 81.05 56 88h8c0-6.541 4.386-11.868 9.814-11.989.087.002.172.013.26.013.06 0 .118-.008.178-.009C79.65 76.178 84 81.485 84 88h8c0-6.908-3.17-13.008-7.977-16.602zm-14.999-8.422c0-2.785 2.265-5.05 5.05-5.05s5.048 2.265 5.048 5.05c0 2.74-2.196 4.965-4.92 5.035-.068 0-.134-.011-.202-.011-.036 0-.072.006-.108.006-2.699-.098-4.868-2.308-4.868-5.03z" style="fill: #ffffff;"/></svg>
