<?xml version="1.0" encoding="UTF-8"?>
<svg xmlns="http://www.w3.org/2000/svg" viewBox="0 0 192 192"><path d="M157 144c0-.933-.103-1.841-.29-2.719l3.146-1.817-4-6.928-3.163 1.826a12.985 12.985 0 0 0-4.693-2.726V128h-8v3.636a12.986 12.986 0 0 0-4.694 2.726l-3.162-1.826-4 6.928 3.147 1.817c-.188.878-.291 1.786-.291 2.719s.103 1.841.291 2.719l-3.147 1.817 4 6.928 3.162-1.826a12.986 12.986 0 0 0 4.694 2.726V160h8v-3.636a12.986 12.986 0 0 0 4.694-2.726l3.162 1.826 4-6.928-3.147-1.817c.188-.878.291-1.786.291-2.719zm-13 5c-2.757 0-5-2.243-5-5s2.243-5 5-5 5 2.243 5 5-2.243 5-5 5zm0 27c-17.645 0-32-14.355-32-32s14.355-32 32-32 32 14.355 32 32-14.355 32-32 32zm0-56c-13.234 0-24 10.766-24 24s10.766 24 24 24 24-10.766 24-24-10.766-24-24-24zm-24-40H56v-8h64v8zm0 20H56v-8h64v8zm-64 12h40v8H56v-8zm65.815-96H40v160h80.028a40.341 40.341 0 0 1-8.006-8H48V24h68v32h28v48c2.74 0 5.414.278 8 .805V50.497L121.815 16zM124 48V30.646L139.185 48H124z" style="fill: #007bc0;"/></svg>
