<?xml version="1.0" encoding="UTF-8"?>
<svg xmlns="http://www.w3.org/2000/svg" viewBox="0 0 192 192"><path d="M164 176H56V32h108v144zm-100-8h92V40H64v128zm-16-16h-8V24h92.159v-8H32v144h16v-8zm96-100.116H72v8.232h72v-8.232zm0 20H72v8.232h72v-8.232zm0 20H72v8.232h72v-8.232zm-3.936 35.988c-4.446 0-8.064 3.617-8.064 8.064 0 .065.008.128.01.193l-8.09 4.854a8.014 8.014 0 0 0-6.808-.416l-6.713-5.37a10.8 10.8 0 0 0 .447-3.062c0-5.98-4.866-10.846-10.846-10.846s-10.846 4.865-10.846 10.846c0 1.178.195 2.31.544 3.372l-6.232 5.297a7.954 7.954 0 0 0-3.7-.763 8.01 8.01 0 0 0-5.62 2.551 8.01 8.01 0 0 0-2.169 5.778 8.01 8.01 0 0 0 2.551 5.62 8.006 8.006 0 0 0 5.778 2.17 8.009 8.009 0 0 0 5.62-2.552 8.012 8.012 0 0 0 2.17-5.779c-.005-.145-.023-.287-.036-.43l6.755-5.741a10.779 10.779 0 0 0 10.645-.168l6.648 5.319c-.065.41-.108.827-.108 1.255 0 4.447 3.618 8.064 8.064 8.064 4.447 0 8.064-3.617 8.064-8.064 0-.09-.01-.178-.013-.268l8.03-4.818a8.009 8.009 0 0 0 3.919 1.022c4.447 0 8.064-3.618 8.064-8.064 0-4.447-3.617-8.064-8.064-8.064z" style="fill: #ffffff;"/></svg>
