<?xml version="1.0" encoding="UTF-8"?>
<svg xmlns="http://www.w3.org/2000/svg" viewBox="0 0 192 192"><path d="M144 176c-17.645 0-32-14.355-32-32s14.355-32 32-32 32 14.355 32 32-14.355 32-32 32zm0-56c-13.234 0-24 10.766-24 24s10.766 24 24 24 24-10.766 24-24-10.766-24-24-24zm14.829 18.829l-5.658-5.658L140 146.343l-5.171-5.172-5.658 5.658L140 157.657l18.829-18.828zM103.789 150L88 160.526V86.819L47.353 24h97.294L104 86.819v48.845s.88.045.87.017a39.847 39.847 0 0 1 7.13-15.653V89.18L159.353 16H32.647L80 89.181v86.293l26.467-17.645a40.164 40.164 0 0 1-2.078-8.231l-.6.402z" style="fill: #007bc0;"/></svg>
