<?xml version="1.0" encoding="utf-8"?>
<!-- Generator: Adobe Illustrator 24.0.1, SVG Export Plug-In . SVG Version: 6.00 Build 0)  -->
<svg version="1.1" id="Icon_x5F_contour" xmlns="http://www.w3.org/2000/svg" xmlns:xlink="http://www.w3.org/1999/xlink" x="0px"
	 y="0px" viewBox="0 0 192 192" style="enable-background:new 0 0 192 192;" xml:space="preserve">
<path d="M146.91162,146.91162l5.65723,5.65723C136.97266,168.16455,116.48633,175.9624,96,175.9624
	s-40.97266-7.79785-56.56885-23.39355c-31.19141-31.19238-31.19141-81.94531,0-113.1377
	c31.19238-31.19141,81.94531-31.19141,113.1377,0l-5.65723,5.65723c-28.07227-28.07227-73.75098-28.07227-101.82324,0
	c-28.07275,28.07275-28.07275,73.75049,0,101.82324S118.83838,174.98438,146.91162,146.91162z M142.82861,126.82861L173.65674,96
	l-30.82812-30.82861l-5.65723,5.65723L158.3432,92H104v8h54.3432l-21.17181,21.17139L142.82861,126.82861z"/>
<g>
</g>
<g>
</g>
<g>
</g>
<g>
</g>
<g>
</g>
<g>
</g>
<g>
</g>
<g>
</g>
<g>
</g>
<g>
</g>
<g>
</g>
<g>
</g>
<g>
</g>
<g>
</g>
<g>
</g>
</svg>
