<?xml version="1.0" encoding="utf-8"?>
<!-- Generator: Adobe Illustrator 24.0.1, SVG Export Plug-In . SVG Version: 6.00 Build 0)  -->
<svg version="1.1" id="Icon_x5F_contour" xmlns="http://www.w3.org/2000/svg" xmlns:xlink="http://www.w3.org/1999/xlink" x="0px"
	 y="0px" viewBox="0 0 192 192" style="enable-background:new 0 0 192 192;" xml:space="preserve">
<path d="M167.80273,111.79541c-6.48193,6.48096-15.7749,9.34961-24.72949,7.7583l-10.35956,10.36035
	c-1.26398-2.4566-2.66736-4.82935-4.21857-7.0957l12.10156-12.10156l2.22852,0.59473
	c6.8877,1.83643,14.29053-0.14355,19.3208-5.17285c4.521-4.52148,6.52197-10.85156,5.65479-16.96924l-11.31201,11.3125
	c-2.2666,2.2666-5.27979,3.51465-8.48535,3.51465s-6.21875-1.24805-8.48535-3.51514c-2.2666-2.26611-3.51465-5.2793-3.51465-8.48486
	s1.24805-6.21875,3.51514-8.48535l11.31201-11.31201c-6.1167-0.8667-12.44775,1.1333-16.96973,5.65527
	c-5.02881,5.0293-7.01074,12.43213-5.17236,19.32031l0.59473,2.22852l-11.37585,11.37585
	c-2.00232-1.78809-4.11536-3.45264-6.32501-4.9892l8.86395-8.86322c-1.59082-8.95361,1.27686-18.24756,7.75781-24.729
	c8.375-8.37549,21.18115-10.57178,31.86768-5.46826l5.104,2.43799l-20.00049,20.00098
	c-0.75586,0.75537-1.17188,1.75977-1.17188,2.82812s0.41602,2.07275,1.17139,2.82812c1.51172,1.51172,4.146,1.51123,5.65674,0.00049
	l20.00098-20.00098l2.43799,5.104C178.37451,90.61426,176.17676,103.4209,167.80273,111.79541z M90.26172,104.33679
	C103.10083,98.23157,112,85.13715,112,70c0-20.95312-17.04688-38-38-38S36,49.04688,36,70
	c0,15.13715,8.89917,28.23157,21.73828,34.33679C33.65021,111.38629,16,133.66382,16,160h8c0-27.57031,22.42969-50,50-50
	s50,22.42969,50,50h8C132,133.66382,114.34979,111.38629,90.26172,104.33679z M44,70c0-16.54199,13.45801-30,30-30
	s30,13.45801,30,30s-13.45801,30-30,30S44,86.54199,44,70z"/>
<g>
</g>
<g>
</g>
<g>
</g>
<g>
</g>
<g>
</g>
<g>
</g>
<g>
</g>
<g>
</g>
<g>
</g>
<g>
</g>
<g>
</g>
<g>
</g>
<g>
</g>
<g>
</g>
<g>
</g>
</svg>
