<?xml version="1.0" encoding="utf-8"?>
<!-- Generator: Adobe Illustrator 24.0.1, SVG Export Plug-In . SVG Version: 6.00 Build 0)  -->
<svg version="1.1" id="Icon_x5F_contour" xmlns="http://www.w3.org/2000/svg" xmlns:xlink="http://www.w3.org/1999/xlink" x="0px"
	 y="0px" viewBox="0 0 192 192" style="enable-background:new 0 0 192 192;" xml:space="preserve">
<path d="M60,88c0-4.41827,3.58173-8,8-8s8,3.58173,8,8s-3.58173,8-8,8S60,92.41827,60,88z M96,96c4.41827,0,8-3.58173,8-8
	s-3.58173-8-8-8s-8,3.58173-8,8S91.58173,96,96,96z M124,96c4.41827,0,8-3.58173,8-8s-3.58173-8-8-8s-8,3.58173-8,8
	S119.58173,96,124,96z M176,40v96H73.65674L40,169.65674L39.99951,136H16V40H176z M168,48H24v80h23.99951L48,150.34326L70.34326,128
	H168V48z"/>
<g>
</g>
<g>
</g>
<g>
</g>
<g>
</g>
<g>
</g>
<g>
</g>
<g>
</g>
<g>
</g>
<g>
</g>
<g>
</g>
<g>
</g>
<g>
</g>
<g>
</g>
<g>
</g>
<g>
</g>
</svg>
