<svg xmlns="http://www.w3.org/2000/svg" viewBox="0 0 192 192"><path d="M96 16c-44.112 0-80 35.888-80 80s35.888 80 80 80 80-35.888 80-80-35.888-80-80-80zM60.035 158.334C60.765 137.726 75.028 124 96 124s35.235 13.726 35.965 34.334C121.374 164.469 109.095 168 96 168s-25.374-3.531-35.965-9.666zM76 92c0-11.028 8.972-20 20-20s20 8.972 20 20-8.972 20-20 20-20-8.972-20-20zm63.57 61.27c-2.358-18.328-14.38-31.74-31.73-35.905C117.376 112.896 124 103.21 124 92c0-15.44-12.56-28-28-28S68 76.56 68 92c0 11.21 6.624 20.896 16.16 25.365-17.35 4.164-29.372 17.577-31.73 35.905C35.167 140.105 24 119.336 24 96c0-39.701 32.299-72 72-72s72 32.299 72 72c0 23.336-11.167 44.105-28.43 57.27z"/></svg>