<svg xmlns="http://www.w3.org/2000/svg" width="22" height="21.992" viewBox="0 0 22 21.992">
  <path id="user-check" d="M29.885,29.6a7.192,7.192,0,0,0-4.272-4.307,4.95,4.95,0,1,0-4.93,0A7.162,7.162,0,0,0,16,32h1.1a6.05,6.05,0,0,1,11.933-1.411A5.546,5.546,0,0,1,29.885,29.6ZM19.3,21a3.85,3.85,0,1,1,3.85,3.846A3.852,3.852,0,0,1,19.3,21ZM33.05,35.525l-1.489-1.489.778-.778.711.711,1.811-1.811.778.778Zm.55,2.522a4.4,4.4,0,1,1,4.4-4.4A4.4,4.4,0,0,1,33.6,38.048Zm0-7.7a3.3,3.3,0,1,0,3.3,3.3A3.3,3.3,0,0,0,33.6,30.348Z" transform="translate(-16 -16.055)" fill="#fcfcfc"/>
</svg>
