<svg xmlns="http://www.w3.org/2000/svg" width="30.772" height="22" viewBox="0 0 30.772 22">
  <path id="Path_19280" data-name="Path 19280" d="M29.131,22a1.866,1.866,0,0,1-.718-.145,1.982,1.982,0,0,1-.643-.432l-5.9-5.9a5.576,5.576,0,1,1,2.425-2.425L30.2,19a1.8,1.8,0,0,1,.1,2.53A1.637,1.637,0,0,1,29.131,22Zm0-.11Zm-6.354-6.956,5.741,5.741a.913.913,0,0,0,.56.268l.061,0a.563.563,0,0,0,.414-.165.586.586,0,0,0,.163-.474.913.913,0,0,0-.268-.56l-5.741-5.741A5.6,5.6,0,0,1,22.777,14.934Zm-7.94-4.367a4.5,4.5,0,1,0,4.5-4.5A4.507,4.507,0,0,0,14.838,10.567Zm.007,4.638h0ZM14.845,15.205ZM0,15.205V0H23.393V5.786a6.386,6.386,0,0,0-1.17-.831V1.17H1.17V14.036h.585a4.635,4.635,0,0,1,.923-2.787,4.71,4.71,0,0,1,1.034-1.016A4.662,4.662,0,0,1,5.02,9.576,2.949,2.949,0,0,1,3.927,8.522a2.924,2.924,0,1,1,5.012,0A2.949,2.949,0,0,1,7.846,9.576a4.661,4.661,0,0,1,1.308.657,4.71,4.71,0,0,1,1.034,1.016,4.635,4.635,0,0,1,.923,2.787h2.736a6.4,6.4,0,0,0,1,1.169H0Zm2.924-1.17H9.942a3.509,3.509,0,1,0-7.018,0ZM4.679,7.018A1.754,1.754,0,1,0,6.433,5.263,1.756,1.756,0,0,0,4.679,7.018Zm8.141,4.094H11.7V9.942h1.123c-.018.193-.027.389-.027.585s.009.392.027.585h0Zm.418-2.924H11.7V7.018h2.151a6.345,6.345,0,0,0-.611,1.17h0ZM11.7,5.263V4.094h9.357v.362a6.375,6.375,0,0,0-5.472.808Z" fill="#fcfcfc"/>
</svg>
