<svg xmlns="http://www.w3.org/2000/svg" width="15.4" height="22" viewBox="0 0 15.4 22">
  <path id="address-consumer-data-upright" d="M40,16V38H55.4V16Zm14.3,1.1V30.3H52.1a4.408,4.408,0,0,0-3.071-4.194,2.75,2.75,0,1,0-2.659,0A4.408,4.408,0,0,0,43.3,30.3H41.1V17.1Zm-6.6,8.25a1.65,1.65,0,1,1,1.65-1.65A1.652,1.652,0,0,1,47.7,25.35ZM51,30.3H44.4a3.3,3.3,0,1,1,6.6,0Zm-9.9,6.6V31.4H54.3v5.5Zm2.75-4.4h7.7v1.1h-7.7Zm1.1,2.2h5.5v1.1h-5.5Zm6.1-15.4h-6.6V18.2h6.6Z" transform="translate(-40 -16)" fill="#fcfcfc"/>
</svg>
