<svg xmlns="http://www.w3.org/2000/svg" width="22.014" height="22" viewBox="0 0 22.014 22">
  <path id="share" d="M33.875,29.836a4.12,4.12,0,0,0-3.6,2.131L23.8,28.984a4.2,4.2,0,0,0,.454-1.9A4.1,4.1,0,0,0,23.8,25.2l6.476-2.984a4.113,4.113,0,1,0-.522-1.994,4.619,4.619,0,0,0,.11.976l-6.71,3.08a4.125,4.125,0,1,0,0,5.61L29.874,33a4.518,4.518,0,0,0-.11.976,4.125,4.125,0,1,0,4.111-4.139Zm0-12.65a3.025,3.025,0,1,1-3.025,3.025A3.034,3.034,0,0,1,33.875,17.186ZM20.125,30.111a3.025,3.025,0,1,1,3.025-3.025A3.034,3.034,0,0,1,20.125,30.111Zm13.75,6.875A3.025,3.025,0,1,1,36.9,33.961,3.034,3.034,0,0,1,33.875,36.986Z" transform="translate(-16 -16.1)" fill="#fcfcfc"/>
</svg>
