<?xml version="1.0" encoding="UTF-8"?>
<svg xmlns="http://www.w3.org/2000/svg" viewBox="0 0 192 192"><path d="M152 128h9.877c-4.51-5.02-11.005-8-17.877-8-13.234 0-24 10.766-24 24s10.766 24 24 24 24-10.766 24-24h8c0 17.645-14.355 32-32 32s-32-14.355-32-32 14.355-32 32-32c9.245 0 17.984 4.04 24 10.84V112h8v24h-24v-8zm-32-56H56v8h64v-8zm0 20H56v8h64v-8zm-64 28h40v-8H56v8zm96-69.503v54.308a40.027 40.027 0 0 0-8-.805V56h-28V24H48v144h64.022a40.341 40.341 0 0 0 8.006 8H40V16h81.815L152 50.497zM139.185 48L124 30.646V48h15.185z" style="fill: #007bc0;"/></svg>
