<svg xmlns="http://www.w3.org/2000/svg" width="15.714" height="22" viewBox="0 0 15.714 22">
  <path id="Path_19223" data-name="Path 19223" d="M0,22V0H15.714V22Zm1.257-1.257h13.2V1.257H1.257Zm1.257-4.4V15.086H9.429v1.257Zm0-3.143V11.943H13.2V13.2Zm0-3.143V8.8H13.2v1.257Zm9.532-3.192a2.119,2.119,0,0,1-.673.11A1.651,1.651,0,0,1,10.042,6.4a1.892,1.892,0,0,1-.425-1.272,2.026,2.026,0,0,1,.231-.97,1.65,1.65,0,0,1,.629-.656,1.8,1.8,0,0,1,.926-.241,1.693,1.693,0,0,1,1.348.574A1.864,1.864,0,0,1,13.183,5.1a1.924,1.924,0,0,1-.533,1.387l.336.388-.552.442Zm-1.4-1.736a1.429,1.429,0,0,0,.219.886.673.673,0,0,0,.56.241.636.636,0,0,0,.1,0l-.275-.327.543-.454.275.322a2.1,2.1,0,0,0,.1-.668,1.293,1.293,0,0,0-.221-.825.652.652,0,0,0-.538-.241Q10.644,4.059,10.644,5.129Zm-3.9,1.785V3.32H9.328V4.1h-1.6v.776H8.94v.744H7.732v1.3Zm-1.562,0A2.685,2.685,0,0,1,4.95,6.2a1.188,1.188,0,0,0-.167-.458.379.379,0,0,0-.307-.109H4.019V6.914H3.03V3.32H4.7a1.433,1.433,0,0,1,1,.314.951.951,0,0,1,.3.737.978.978,0,0,1-.172.614.961.961,0,0,1-.462.3.677.677,0,0,1,.4.275,2.18,2.18,0,0,1,.2.609,2.635,2.635,0,0,0,.236.724v.02ZM4.019,4.928h.557q.474,0,.474-.432a.42.42,0,0,0-.13-.332.625.625,0,0,0-.388-.091H4.019Z" fill="#007bc0"/>
</svg>
