<?xml version="1.0" encoding="UTF-8"?>
<svg xmlns="http://www.w3.org/2000/svg" viewBox="0 0 192 192"><path d="M96 128.5c-17.92 0-32.5-14.58-32.5-32.5S78.08 63.5 96 63.5s32.5 14.58 32.5 32.5-14.58 32.5-32.5 32.5zm0-57c-13.51 0-24.5 10.99-24.5 24.5s10.99 24.5 24.5 24.5 24.5-10.991 24.5-24.5S109.509 71.5 96 71.5zM96 176a80.87 80.87 0 0 1-12.626-1.001l-2.582-.41-4.642-17.733a63.812 63.812 0 0 1-9.142-3.795l-15.814 9.252-2.114-1.533a80.275 80.275 0 0 1-17.86-17.86l-1.534-2.115 9.256-15.808a63.75 63.75 0 0 1-3.813-9.19l-17.718-4.593-.41-2.588C16.335 104.438 16 100.19 16 96s.336-8.439 1-12.626l.41-2.583 17.732-4.638a63.766 63.766 0 0 1 3.798-9.149l-9.254-15.81 1.534-2.115a80.275 80.275 0 0 1 17.86-17.86l2.114-1.533 15.81 9.255a63.705 63.705 0 0 1 9.189-3.812l4.593-17.718 2.588-.41a80.525 80.525 0 0 1 25.252 0l2.582.41 4.642 17.732a63.675 63.675 0 0 1 9.143 3.796l15.813-9.252 2.114 1.533a80.275 80.275 0 0 1 17.86 17.86l1.534 2.115-9.256 15.808a63.77 63.77 0 0 1 3.812 9.19l17.718 4.593.41 2.588C175.664 87.56 176 91.809 176 96s-.337 8.438-1.001 12.626l-.41 2.582-17.732 4.638a63.772 63.772 0 0 1-3.798 9.15l9.254 15.809-1.534 2.115a80.275 80.275 0 0 1-17.86 17.86l-2.114 1.533-15.809-9.255a63.797 63.797 0 0 1-9.19 3.812l-4.591 17.718-2.589.41A80.89 80.89 0 0 1 96 176zm-8.805-8.542c5.868.72 11.736.719 17.603.001l4.4-16.977 2.2-.628a55.684 55.684 0 0 0 11.747-4.873l1.995-1.108 15.153 8.871a72.242 72.242 0 0 0 12.451-12.451l-8.87-15.153 1.108-1.995a55.744 55.744 0 0 0 4.86-11.707l.628-2.19 16.988-4.444c.36-2.935.542-5.886.542-8.804a72.55 72.55 0 0 0-.541-8.798l-16.977-4.4-.628-2.2a55.734 55.734 0 0 0-4.873-11.749l-1.108-1.995 8.871-15.152a72.222 72.222 0 0 0-12.45-12.45l-15.158 8.869-1.995-1.11a55.7 55.7 0 0 0-11.699-4.857l-2.19-.628-4.447-16.989a72.119 72.119 0 0 0-17.603-.001l-4.4 16.977-2.2.628a55.702 55.702 0 0 0-11.748 4.872l-1.994 1.11-15.154-8.872a72.225 72.225 0 0 0-12.451 12.451l8.871 15.155-1.109 1.994a55.71 55.71 0 0 0-4.86 11.706l-.628 2.191-16.988 4.444A72.466 72.466 0 0 0 24 96c0 2.916.181 5.865.54 8.798l16.977 4.4.629 2.2a55.674 55.674 0 0 0 4.873 11.748l1.109 1.996-8.872 15.152a72.208 72.208 0 0 0 12.451 12.45l15.157-8.868 1.994 1.108a55.735 55.735 0 0 0 11.7 4.857l2.19.628 4.447 16.989z" style="fill: #007bc0;"/></svg>
