<?xml version="1.0" encoding="UTF-8"?>
<svg xmlns="http://www.w3.org/2000/svg" viewBox="0 0 192 192"><path d="M159.83 101.683l-8.492-56.02C150.2 37.883 143.394 32 135.51 32H100c-10.068 0-16.425 2.397-19.84 3.685-.541.204-1.014.383-1.425.52-2.139.713-10.41 4.066-15.747 6.247C60.725 36.36 54.87 32 48 32c-8.822 0-16 7.178-16 16v56c0 8.822 7.178 16 16 16 6.892 0 12.763-4.389 15.01-10.511l12.183 4.811a7.963 7.963 0 0 1 4.346 5.218L88.813 160H100c8.822 0 16-7.178 16-16v-24h27.998c4.65 0 9.064-2.019 12.105-5.538s4.4-8.177 3.726-12.779zM56 104c0 4.411-3.589 8-8 8s-8-3.589-8-8V48c0-4.411 3.589-8 8-8s8 3.589 8 8v56zm94.05 5.231a7.995 7.995 0 0 1-6.052 2.769H108v32c0 4.411-3.589 8-8 8h-4.813L87.3 117.58a15.927 15.927 0 0 0-8.88-10.601l-.186-.079L64 101.28V50.681c5.665-2.321 15.25-6.216 17.265-6.887a50.78 50.78 0 0 0 1.717-.625C86.127 41.984 91.39 40 100 40h35.51c3.942 0 7.345 2.94 7.915 6.841l8.492 56.02a7.985 7.985 0 0 1-1.867 6.37z" style="fill: #ffffff;"/></svg>
