<svg xmlns="http://www.w3.org/2000/svg" width="22" height="22" viewBox="0 0 22 22">
  <path id="Path_19271" data-name="Path 19271" d="M11,22a10.168,10.168,0,0,1-4.571-1.055A10.792,10.792,0,0,1,2.75,17.9v1.9H1.65V15.95H5.5v1.1H3.482A9.288,9.288,0,0,0,11,20.9,9.911,9.911,0,0,0,20.9,11H22A11.012,11.012,0,0,1,11,22ZM1.1,11H0A11.012,11.012,0,0,1,11,0a10.168,10.168,0,0,1,4.571,1.055A10.792,10.792,0,0,1,19.25,4.1V2.2h1.1V6.05H16.5V4.95h2.018A9.289,9.289,0,0,0,11,1.1,9.911,9.911,0,0,0,1.1,11Z" transform="translate(0 0)" fill="#fcfcfc"/>
</svg>
