<?xml version="1.0" encoding="utf-8"?>
<!-- Generator: Adobe Illustrator 25.2.3, SVG Export Plug-In . SVG Version: 6.00 Build 0)  -->
<svg version="1.1" id="Icon_x5F_contour" xmlns="http://www.w3.org/2000/svg" xmlns:xlink="http://www.w3.org/1999/xlink" x="0px"
	 y="0px" viewBox="0 0 192 192" style="enable-background:new 0 0 192 192;" xml:space="preserve">
<path d="M109.20197,101.48151C122.53796,96.20422,132,83.19067,132,68c0-19.85059-16.14941-36-36-36S60,48.14941,60,68
	c0,15.19067,9.46204,28.20422,22.79803,33.48151C56.04681,107.51428,36,131.45258,36,160h8
	c0-23.01282,15.03217-42.56964,35.7887-49.39886l6.98462,9.81354l-7.203,28.81238L96,165.65674l16.42969-16.42969l-7.203-28.81238
	l6.98462-9.81354C132.96783,117.43036,148,136.98718,148,160h8C156,131.45258,135.95319,107.51428,109.20197,101.48151z M68,68
	c0-15.43945,12.56055-28,28-28s28,12.56055,28,28s-12.56055,28-28,28S68,83.43945,68,68z M96,154.34326l-7.57031-7.57031
	L94.12305,124h3.75391l5.69336,22.77295L96,154.34326z M98.54968,116h-5.09937l-5.27429-7.41046
	C90.7287,108.2027,93.34106,108,96,108s5.2713,0.2027,7.82397,0.58954L98.54968,116z"/>
<g>
</g>
<g>
</g>
<g>
</g>
<g>
</g>
<g>
</g>
<g>
</g>
<g>
</g>
<g>
</g>
<g>
</g>
<g>
</g>
<g>
</g>
<g>
</g>
<g>
</g>
<g>
</g>
<g>
</g>
</svg>
