<?xml version="1.0" encoding="UTF-8"?>
<svg xmlns="http://www.w3.org/2000/svg" viewBox="0 0 192 192"><path d="M96 144c-49.802 0-74.485-44.203-75.512-46.084L19.444 96l1.044-1.916C21.515 92.204 46.198 48 96 48s74.485 44.203 75.512 46.084L172.556 96l-1.044 1.916C170.485 99.796 145.802 144 96 144zM28.67 95.996C33.882 104.203 56.632 136 96 136c39.469 0 62.13-31.774 67.33-39.995C158.114 87.792 135.365 56 96 56c-39.469 0-62.13 31.775-67.33 39.996zM96 124c-15.44 0-28-12.56-28-28s12.56-28 28-28 28 12.56 28 28-12.56 28-28 28zm0-48c-11.028 0-20 8.972-20 20s8.972 20 20 20 20-8.972 20-20-8.972-20-20-20z" style="fill: #007bc0;"/></svg>
